<?xml version="1.0" standalone="no"?>
<!DOCTYPE svg PUBLIC "-//W3C//DTD SVG 20010904//EN"
 "http://www.w3.org/TR/2001/REC-SVG-20010904/DTD/svg10.dtd">
<svg version="1.0" xmlns="http://www.w3.org/2000/svg"
 width="2215.000000pt" height="2215.000000pt" viewBox="0 0 2215.000000 2215.000000"
 preserveAspectRatio="xMidYMid meet">
<metadata>
Created by potrace 1.11, written by Peter Selinger 2001-2013
</metadata>
<g transform="translate(0.000000,2215.000000) scale(0.100000,-0.100000)"
fill="#000000" stroke="none">
<path d="M11720 12460 c-7 -13 -24 -74 -46 -160 -2 -8 -13 -52 -25 -97 l-21
-83 -441 -2 -441 -3 -7 -30 c-3 -16 -30 -115 -58 -220 -29 -104 -66 -242 -82
-305 -37 -142 -146 -548 -164 -612 l-14 -48 47 -1 c122 -3 304 0 308 4 3 2 15
42 27 87 l23 82 252 1 c138 0 254 -2 258 -5 3 -3 -11 -68 -31 -145 -20 -76
-39 -145 -40 -153 -2 -8 -26 -98 -54 -199 -28 -101 -48 -187 -46 -191 3 -4 81
-8 174 -8 150 0 171 2 175 16 3 10 17 62 31 117 81 310 149 551 156 559 8 9
495 13 504 5 2 -3 -5 -38 -15 -79 -11 -41 -20 -79 -20 -85 0 -12 340 -9 351 3
6 6 32 99 54 192 2 8 34 123 70 255 36 132 68 251 71 265 9 43 85 313 91 322
13 22 -9 99 -35 123 -54 50 -86 54 -449 55 -185 0 -338 2 -340 4 -2 2 6 39 17
82 12 44 32 119 46 168 13 50 21 92 19 95 -3 2 -80 5 -171 5 -139 1 -167 -1
-174 -14z m-173 -623 c1 -2 -13 -62 -33 -133 -20 -71 -37 -136 -39 -145 -11
-53 -49 -185 -55 -192 -7 -8 -116 -9 -429 -8 -85 1 -92 3 -86 19 4 9 24 82 45
162 70 265 79 293 88 299 10 6 503 3 509 -2z m796 3 c77 0 78 0 71 -22 -4 -13
-33 -119 -64 -236 -32 -117 -60 -215 -63 -218 -4 -4 -294 -7 -468 -5 l-46 1
47 173 c26 94 55 202 64 239 l18 67 56 3 c32 2 113 2 182 1 69 -1 160 -2 203
-3z"/>
<path d="M16080 12440 c-34 -131 -150 -594 -154 -615 -3 -13 -7 -28 -10 -33
-3 -5 -7 -19 -10 -33 -2 -13 -23 -98 -46 -188 -23 -90 -43 -171 -45 -180 -2
-9 -60 -240 -129 -513 -69 -273 -126 -501 -126 -505 0 -5 70 -8 156 -8 183 0
158 -22 205 174 17 69 32 133 34 141 2 8 31 123 65 255 34 132 63 248 65 258
2 10 6 26 9 35 3 9 7 28 10 42 3 14 12 50 20 82 8 31 18 67 21 80 2 12 11 48
19 78 l14 55 27 -60 c15 -33 28 -61 30 -63 7 -8 177 102 193 126 53 74 47 125
-29 276 -34 70 -66 126 -71 126 -5 0 -18 -5 -29 -10 -14 -8 -19 -7 -19 2 0 7
29 124 64 261 41 159 60 247 53 248 -7 0 -79 1 -160 2 l-148 2 -9 -35z"/>
<path d="M16931 12353 c-18 -71 -39 -152 -47 -180 l-15 -53 -187 0 -188 0 -23
-95 c-13 -52 -25 -104 -28 -115 -5 -20 -1 -20 182 -20 l187 0 -7 -27 c-4 -16
-8 -35 -10 -43 -2 -8 -20 -80 -40 -160 -20 -80 -38 -150 -39 -157 -1 -7 -5
-15 -8 -18 -3 -3 -87 -6 -187 -7 l-181 0 -9 -37 c-37 -138 -48 -191 -42 -192
3 0 83 -2 176 -2 133 -2 169 -5 167 -15 -3 -17 -114 -244 -151 -309 -76 -135
-191 -272 -329 -392 -59 -52 -68 -64 -77 -111 -2 -12 -7 -30 -10 -39 -5 -16 0
-17 57 -9 35 5 102 22 149 38 220 73 379 223 535 505 36 66 69 124 74 128 4 5
33 -36 64 -90 90 -155 114 -192 190 -293 100 -134 286 -319 286 -285 0 2 16
63 35 134 35 130 41 167 27 173 -13 6 -98 112 -156 195 -56 80 -163 278 -184
339 l-10 31 231 1 c288 0 274 0 274 15 1 11 37 158 49 200 5 16 1 18 -28 17
-72 -4 -90 -1 -84 16 21 54 107 423 111 472 3 53 1 63 -23 91 -36 42 -111 57
-297 60 -77 1 -141 4 -143 6 -3 2 66 280 84 338 5 16 -8 17 -169 17 l-174 0
-32 -127z m402 -595 c-18 -73 -35 -140 -37 -148 -1 -8 -8 -41 -16 -72 -12 -55
-15 -58 -44 -59 -55 -1 -171 2 -174 6 -2 1 15 70 36 151 22 82 45 173 53 202
l13 52 101 0 102 0 -34 -132z"/>
<path d="M18890 12473 c0 -1 23 -40 50 -88 28 -48 50 -88 50 -91 0 -2 -64 -5
-142 -6 l-142 -3 -24 -90 c-13 -49 -26 -101 -29 -115 l-5 -25 267 2 266 2 -5
-27 c-16 -97 -30 -132 -50 -133 -12 0 -133 0 -269 0 -247 1 -248 0 -257 -22
-14 -31 -149 -543 -152 -575 l-3 -27 257 0 c141 0 254 -3 250 -7 -4 -3 -47
-24 -97 -46 -49 -22 -171 -77 -270 -122 -99 -45 -189 -86 -201 -90 -16 -6 -27
-33 -52 -125 -18 -65 -31 -119 -30 -120 2 -2 39 14 83 36 526 254 544 262 531
241 -4 -7 -86 -308 -86 -318 0 -2 78 -4 173 -4 l172 0 65 238 c35 130 66 244
67 253 1 9 7 27 12 40 8 24 12 25 107 24 119 -1 114 15 57 -190 -39 -139 -39
-140 -69 -141 -16 -1 -39 -2 -50 -3 -19 -1 -25 -13 -44 -83 -12 -46 -24 -91
-26 -100 -5 -16 7 -17 143 -17 81 0 164 4 184 10 48 12 119 76 146 130 36 72
126 416 127 486 1 55 -2 66 -25 88 -44 44 -82 51 -289 50 l-192 -1 6 29 c3 15
13 52 21 81 l16 53 277 -1 277 -1 26 95 c53 192 98 366 103 400 6 41 -15 89
-46 110 -15 9 -60 16 -126 20 l-102 5 80 85 c43 47 79 87 80 90 0 3 -72 5
-160 5 l-161 0 -91 -93 -91 -93 -69 3 -70 3 -31 55 c-16 30 -40 71 -52 90
l-22 35 -182 0 c-99 0 -181 -1 -181 -2z m850 -421 c0 -4 -9 -38 -19 -77 l-18
-70 -59 -5 c-33 -3 -80 -3 -105 -2 l-47 4 21 78 21 78 103 0 c57 1 103 -2 103
-6z m-664 -401 c-3 -9 -12 -45 -21 -81 l-16 -65 -95 0 c-52 0 -94 2 -94 4 0 3
9 39 21 82 l21 77 94 -1 c80 -1 93 -3 90 -16z"/>
<path d="M13485 12457 c-11 -7 -68 -39 -127 -72 l-107 -59 13 -31 c7 -16 23
-55 36 -85 12 -30 31 -74 41 -97 11 -24 31 -72 45 -108 14 -36 29 -65 32 -65
3 0 43 21 90 48 103 57 134 99 136 178 1 44 -8 69 -63 178 -34 69 -66 126 -69
125 -4 -1 -16 -6 -27 -12z"/>
<path d="M13847 12365 c-15 -57 -27 -108 -27 -113 0 -7 31 -11 78 -11 42 0
113 0 157 -1 l80 0 -45 -41 c-25 -22 -55 -47 -67 -56 -13 -8 -23 -18 -23 -22
0 -4 47 -36 105 -71 58 -35 108 -66 110 -69 2 -4 -103 -6 -232 -6 -227 0 -236
0 -244 -20 -7 -16 -60 -213 -74 -274 -3 -9 -20 -74 -40 -146 -20 -71 -38 -137
-40 -145 -2 -8 -40 -153 -86 -322 -45 -170 -80 -311 -76 -314 11 -11 328 -10
336 1 7 10 27 81 79 275 l27 105 122 2 c111 2 121 1 118 -15 -2 -9 -26 -101
-54 -205 -28 -103 -51 -189 -51 -192 0 -3 78 -5 173 -5 l174 0 29 108 c15 59
29 112 31 117 1 6 7 28 13 50 6 22 17 63 23 90 l12 50 108 2 c74 1 110 -3 113
-10 2 -7 -6 -50 -19 -97 -21 -83 -23 -85 -52 -85 -28 0 -31 -5 -52 -69 -13
-38 -25 -84 -29 -102 l-6 -34 143 1 c158 1 192 11 250 70 46 48 57 78 140 388
44 163 86 321 95 351 9 30 17 62 19 70 2 8 14 56 28 105 27 102 27 156 0 194
-35 47 -65 54 -230 55 -84 1 -149 4 -145 7 4 3 54 27 112 54 58 26 165 77 239
112 73 34 137 63 142 63 7 0 25 51 34 95 2 6 12 43 23 83 11 39 17 74 14 76
-4 2 -345 4 -757 3 l-751 0 -27 -102z m1013 -125 c41 -1 68 -4 60 -7 -8 -3
-71 -33 -140 -66 -69 -33 -151 -72 -183 -87 l-59 -27 -135 84 c-74 46 -142 87
-151 91 -35 14 183 18 608 12z m-580 -467 c0 -2 -7 -30 -17 -63 l-16 -60 -119
0 c-132 0 -127 -4 -103 78 l16 51 119 -1 c66 -1 120 -3 120 -5z m561 -56 l-16
-62 -113 -3 c-78 -2 -112 1 -112 9 0 6 7 35 15 64 l16 52 113 1 114 1 -17 -62z
m-651 -270 c0 -7 -6 -34 -13 -62 l-13 -50 -122 -3 c-67 -1 -122 0 -122 3 0 3
7 32 16 64 l17 59 118 1 c86 0 119 -3 119 -12z m576 -5 c-3 -9 -10 -38 -17
-64 l-11 -48 -115 0 c-96 0 -114 2 -110 14 3 8 11 34 17 58 7 24 14 46 16 49
2 4 54 7 114 8 100 0 111 -1 106 -17z"/>
<path d="M18259 12397 l-127 -70 45 -106 c24 -58 61 -146 81 -194 41 -100 30
-97 141 -34 93 53 124 96 125 171 1 46 -8 70 -62 180 -35 69 -67 126 -70 125
-4 0 -64 -33 -133 -72z"/>
<path d="M1854 12072 c-101 -206 -182 -377 -180 -380 3 -2 296 -5 651 -5 l646
0 -23 -25 c-13 -14 -434 -435 -936 -936 l-914 -911 -189 -378 c-104 -208 -189
-380 -189 -381 0 -2 976 -3 2170 -3 l2169 0 41 80 c22 44 40 82 40 84 0 1
-254 3 -565 3 l-565 0 27 55 27 55 566 0 567 0 46 91 c26 50 47 93 47 95 0 2
-252 3 -560 3 -309 -1 -562 0 -565 2 -2 3 8 27 23 54 l27 50 545 2 c300 1 555
2 566 2 16 1 31 20 63 81 22 44 41 85 41 92 0 10 -318 12 -1597 10 l-1598 -3
943 943 942 943 2893 0 c2875 0 2892 1 2889 20 -2 11 -16 52 -31 90 l-28 70
-2817 3 -2816 2 27 55 27 55 2753 0 2754 0 -11 21 c-7 11 -42 53 -80 92 l-68
72 -975 0 -975 0 -76 -52 c-45 -31 -72 -44 -66 -33 8 15 21 47 33 80 1 3 -714
5 -1590 5 -875 0 -1594 3 -1597 6 -3 3 6 28 21 55 l26 49 1601 0 1601 0 37 70
c21 39 38 75 38 81 0 8 -776 11 -2826 11 l-2826 0 -184 -375z"/>
<path d="M8578 12445 c-2 -1 -39 -5 -83 -8 -44 -4 -91 -9 -105 -11 -14 -3 -54
-10 -90 -16 -116 -20 -384 -101 -405 -122 -2 -2 343 -3 766 -3 423 0 769 3
769 6 0 11 -137 68 -227 93 -80 23 -139 35 -263 51 -45 7 -356 15 -362 10z"/>
<path d="M15560 11994 c0 -3 -27 -112 -61 -242 -33 -130 -62 -244 -64 -252 -5
-24 -115 -464 -120 -480 -4 -14 15 -16 149 -15 85 0 157 3 160 6 5 5 137 522
152 594 3 11 26 104 52 208 l48 187 -158 0 c-87 0 -158 -3 -158 -6z"/>
<path d="M13086 11710 c-20 -76 -36 -141 -36 -144 0 -3 20 -6 45 -6 25 0 45
-2 45 -4 0 -3 -25 -98 -56 -213 -31 -114 -58 -215 -59 -223 -2 -8 -20 -76 -40
-150 l-37 -135 -63 -61 -64 -61 -45 -164 c-25 -90 -43 -165 -41 -167 2 -2 82
43 178 101 l174 106 59 -58 c114 -110 226 -142 519 -147 105 -2 409 -5 677 -7
l488 -3 14 51 c20 70 56 212 56 222 0 4 -35 7 -77 6 -169 -6 -1055 -5 -1166 1
-162 8 -235 33 -304 102 -32 32 -53 62 -53 74 0 12 16 81 36 154 20 72 37 138
39 146 2 8 27 101 55 205 78 287 90 337 90 377 0 51 -15 79 -57 108 -35 24
-44 25 -188 27 l-152 1 -37 -138z"/>
<path d="M17972 11727 c-18 -67 -35 -132 -38 -144 -6 -21 -3 -23 40 -23 25 0
46 -4 46 -8 0 -5 -6 -31 -14 -58 -8 -27 -26 -92 -40 -144 -13 -52 -34 -131
-46 -175 -12 -44 -23 -87 -25 -95 -2 -8 -18 -67 -34 -130 -29 -109 -33 -117
-78 -160 -78 -74 -82 -82 -122 -231 -21 -79 -41 -154 -45 -166 -6 -17 31 1
173 88 l181 109 37 -41 c46 -52 122 -101 188 -124 100 -34 203 -43 520 -44
171 -1 464 -3 652 -4 l343 -3 9 31 c29 91 63 236 57 242 -3 3 -81 5 -174 4
-92 -2 -304 -3 -472 -4 -629 0 -722 6 -823 53 -52 25 -127 100 -127 128 0 21
11 64 140 542 45 168 82 320 82 338 0 51 -21 90 -61 114 -33 21 -50 23 -187
24 l-151 2 -31 -121z"/>
<path d="M5190 11575 c-4 -5 -26 -47 -49 -92 l-41 -83 568 0 567 0 40 83 c22
45 40 86 40 92 0 14 -1114 14 -1125 0z"/>
<path d="M7017 11565 c-10 -11 -38 -53 -62 -92 l-45 -73 488 0 487 0 65 63
c36 35 84 76 106 93 l41 29 -530 0 c-518 0 -531 0 -550 -20z"/>
<path d="M8904 11540 c23 -25 52 -66 65 -92 l23 -48 484 0 484 0 -4 23 c-3 12
-8 51 -11 87 -3 35 -8 67 -11 70 -3 2 -245 5 -539 5 l-533 0 42 -45z"/>
<path d="M5015 11233 c-16 -32 -37 -74 -46 -94 l-17 -36 567 1 566 1 42 85
c24 47 43 88 43 93 0 4 -253 7 -563 7 l-563 0 -29 -57z"/>
<path d="M6816 11218 c-18 -40 -36 -83 -40 -95 l-7 -22 463 2 462 2 34 60 c18
33 43 75 54 93 l20 32 -477 0 -476 0 -33 -72z"/>
<path d="M9013 11198 l4 -93 463 0 c431 0 463 1 466 17 1 10 5 51 7 93 l6 75
-475 0 -475 0 4 -92z"/>
<path d="M4914 10992 c-16 -2 -33 -26 -64 -88 -23 -47 -40 -88 -37 -91 5 -4
966 -8 1099 -4 24 1 33 11 68 82 22 45 39 86 37 92 -3 9 -1042 18 -1103 9z"/>
<path d="M6737 10992 c-11 -2 -25 -30 -42 -83 -14 -44 -25 -85 -25 -92 0 -14
896 -15 909 -1 13 15 63 166 57 172 -6 5 -870 9 -899 4z"/>
<path d="M9024 10992 c-17 -2 -23 -12 -29 -50 -7 -53 -10 -65 -20 -104 -6 -23
-4 -28 11 -29 11 0 216 -1 457 -1 353 -1 441 2 447 12 6 10 23 95 22 107 -1 2
3 16 8 33 5 16 6 30 2 31 -22 2 -881 3 -898 1z"/>
<path d="M4728 10657 c-24 -45 -68 -137 -68 -141 0 -2 254 -3 565 -3 l564 0
45 88 c24 49 41 91 37 93 -3 2 -257 5 -563 5 l-558 1 -22 -43z"/>
<path d="M6636 10692 c-6 -11 -24 -84 -30 -126 -4 -21 -8 -42 -11 -46 -2 -4
205 -7 460 -7 446 0 465 1 465 18 0 24 -2 14 15 84 8 33 14 65 15 72 0 9 -105
12 -455 12 -250 0 -457 -4 -459 -7z"/>
<path d="M8915 10617 c-15 -45 -30 -87 -32 -93 -3 -8 128 -11 456 -11 l459 0
15 41 c33 89 45 136 39 140 -4 2 -210 4 -458 5 l-451 1 -28 -83z"/>
<path d="M4660 10402 l-65 -3 -42 -87 c-23 -48 -40 -88 -38 -90 3 -3 920 -5
1090 -2 l40 0 42 87 c23 48 40 89 38 91 -5 5 -976 8 -1065 4z"/>
<path d="M6579 10395 c0 -5 -2 -19 -4 -30 -10 -54 -11 -136 -3 -141 7 -5 840
-8 925 -5 9 1 11 27 10 91 l-2 90 -30 1 c-301 6 -895 2 -896 -6z"/>
<path d="M8825 10385 c-41 -66 -93 -161 -90 -164 3 -2 730 -4 901 -2 l41 1 37
80 c20 43 36 85 36 92 0 10 -91 13 -456 13 -446 0 -457 0 -469 -20z"/>
<path d="M4406 10018 c-30 -59 -41 -91 -33 -94 7 -2 261 -3 566 -2 l555 3 37
70 c20 39 39 79 43 91 l6 21 -564 0 -565 0 -45 -89z"/>
<path d="M6566 10103 c-3 -3 -3 -10 -1 -16 2 -7 6 -43 9 -81 4 -38 9 -72 11
-77 6 -8 1055 -13 1055 -5 0 3 -12 18 -26 33 -15 15 -40 56 -55 89 l-28 61
-480 0 c-264 0 -482 -2 -485 -4z"/>
<path d="M8619 10077 c-21 -27 -98 -93 -161 -139 -22 -16 8 -17 505 -17 604 0
532 -12 605 108 23 39 42 73 42 75 0 2 -218 3 -483 3 l-484 0 -24 -30z"/>
<path d="M12505 9983 c-234 -46 -396 -194 -470 -428 -83 -265 -1 -454 214
-493 55 -10 165 -9 222 2 165 33 318 155 396 316 67 137 90 268 67 376 -31
150 -131 223 -314 229 -52 1 -104 0 -115 -2z m134 -191 c64 -48 80 -131 49
-253 -59 -237 -221 -365 -371 -294 -53 25 -72 67 -71 160 2 182 114 367 245
403 49 14 119 6 148 -16z"/>
<path d="M18520 9983 c-247 -18 -432 -176 -427 -364 4 -108 78 -169 257 -207
140 -31 174 -60 144 -123 -21 -42 -85 -64 -184 -63 -99 1 -172 25 -243 79 -25
19 -50 35 -56 35 -10 0 -21 -30 -46 -127 -8 -34 -18 -69 -21 -76 -5 -15 59
-45 146 -68 61 -16 262 -16 330 0 181 44 315 174 335 323 11 84 -23 147 -101
187 -22 12 -94 35 -159 51 -66 17 -128 38 -137 47 -63 57 56 147 184 138 90
-6 142 -24 208 -73 19 -15 40 -27 46 -28 14 -2 55 132 57 186 l2 34 -86 22
c-84 22 -177 32 -249 27z"/>
<path d="M19400 9979 c-227 -21 -394 -158 -407 -334 -5 -64 11 -117 44 -147
34 -31 118 -66 198 -83 90 -20 146 -40 157 -58 24 -37 -2 -86 -61 -117 -32
-17 -156 -22 -211 -8 -57 14 -128 49 -169 83 -17 15 -37 25 -44 22 -7 -3 -23
-47 -36 -98 -14 -52 -26 -99 -28 -105 -2 -6 18 -20 44 -31 44 -19 68 -26 128
-39 45 -10 204 -12 255 -3 207 37 342 147 379 310 9 38 8 63 -4 115 -6 28 -51
72 -98 96 -21 10 -84 30 -140 44 -137 34 -156 42 -163 71 -10 38 10 68 62 94
93 44 241 25 336 -44 24 -17 48 -32 54 -33 9 -2 64 173 64 205 0 9 -56 30
-125 46 -54 14 -169 20 -235 14z"/>
<path d="M10424 9952 c-17 -2 -25 -18 -43 -83 -11 -45 -19 -84 -17 -88 2 -3
89 -6 193 -5 183 0 216 -2 195 -15 -5 -3 -95 -88 -198 -187 -104 -100 -228
-219 -277 -265 -86 -83 -88 -85 -111 -167 -17 -59 -21 -84 -13 -87 7 -2 171
-3 366 -2 l354 2 17 60 c9 33 20 72 24 88 l6 27 -226 0 -226 0 94 89 c51 49
111 106 134 127 23 22 111 106 196 187 l156 149 20 81 c12 45 19 83 17 86 -5
5 -629 8 -661 3z"/>
<path d="M11238 9949 c-9 -6 -48 -139 -48 -164 0 -7 42 -10 130 -10 l131 1 -6
-31 c-4 -16 -17 -68 -30 -115 -12 -47 -46 -173 -75 -280 -28 -107 -58 -216
-65 -242 -8 -26 -11 -49 -7 -52 4 -2 55 -4 114 -4 l106 1 16 61 c9 34 41 153
72 266 30 113 57 212 58 220 2 8 14 51 26 95 l22 81 129 -1 c72 0 134 2 139 5
5 3 11 19 14 35 3 17 12 52 20 80 9 27 13 51 11 53 -7 7 -746 8 -757 1z"/>
<path d="M13591 9948 c-13 -4 -28 -47 -59 -165 -23 -87 -76 -283 -117 -437
-41 -153 -75 -282 -75 -286 0 -4 141 -8 313 -8 l314 1 21 82 c12 46 22 86 22
89 0 3 -90 6 -200 6 l-200 0 6 28 c4 15 13 44 20 65 7 20 12 37 10 37 -2 0 2
19 9 43 l12 42 174 2 c96 0 181 2 189 2 11 1 21 23 33 69 10 37 20 76 23 87 5
20 1 20 -178 20 -209 0 -197 -7 -168 95 l16 55 202 0 203 0 10 40 c30 108 36
135 30 136 -36 5 -597 2 -610 -3z"/>
<path d="M14370 9944 c0 -6 38 -104 85 -218 47 -113 85 -211 85 -217 0 -5 -19
-29 -42 -53 -24 -24 -99 -103 -168 -176 -69 -73 -138 -147 -155 -164 -66 -69
-70 -65 70 -64 l126 1 35 41 c20 23 79 88 132 145 l97 104 11 -29 c6 -16 30
-81 53 -145 l42 -117 130 0 c71 0 129 2 129 4 0 6 -52 140 -134 344 l-46 114
34 36 c19 19 64 67 101 105 37 39 116 121 176 183 76 77 104 112 92 113 -10 1
-67 1 -127 1 l-110 0 -35 -38 c-19 -22 -76 -83 -127 -137 -80 -86 -93 -96
-101 -80 -5 10 -29 71 -54 136 -35 95 -47 117 -64 118 -127 5 -235 2 -235 -7z"/>
<path d="M15434 9952 c-15 -2 -23 -15 -32 -50 -11 -43 -82 -307 -183 -682 -21
-80 -39 -150 -39 -156 0 -12 200 -17 216 -6 9 6 21 47 74 252 l10 36 90 -1
c111 -1 198 16 269 52 205 106 302 395 166 498 -60 46 -119 56 -344 58 -113 1
-215 1 -227 -1z m356 -192 c42 -23 46 -64 13 -142 -30 -71 -131 -112 -249
-100 l-31 3 18 57 c9 31 25 89 36 127 l19 70 39 5 c47 6 125 -4 155 -20z"/>
<path d="M16368 9952 c-8 -2 -20 -23 -26 -50 -7 -26 -28 -105 -47 -177 -19
-71 -55 -206 -80 -300 -25 -93 -55 -204 -66 -245 -12 -41 -23 -87 -26 -101
l-5 -26 111 0 111 0 11 41 c6 22 26 95 43 161 l33 120 57 3 c41 2 56 -1 56
-10 1 -7 32 -80 69 -163 l69 -150 131 -1 c72 -1 133 1 135 5 3 4 -13 43 -34
87 -123 250 -140 287 -138 289 2 1 28 18 58 37 99 63 145 122 174 218 41 137
-8 222 -142 251 -46 9 -453 19 -494 11z m364 -181 c72 -27 36 -161 -56 -205
-32 -15 -166 -28 -192 -19 -12 4 -10 11 37 173 l19 66 82 -2 c46 -2 95 -7 110
-13z"/>
<path d="M17353 9949 c-10 -3 -23 -26 -29 -50 -23 -85 -66 -244 -69 -259 -5
-19 -91 -338 -111 -410 -9 -30 -17 -62 -19 -71 -2 -9 -8 -34 -14 -55 -6 -22
-11 -42 -11 -45 0 -4 141 -7 314 -6 l314 0 21 81 c12 45 21 84 21 89 0 4 -90
7 -200 7 -110 0 -200 1 -200 3 0 1 14 49 30 107 17 58 30 106 30 107 0 1 83 1
185 0 l185 -2 9 25 c9 22 41 142 41 152 0 2 -83 3 -185 3 -117 0 -185 4 -185
10 1 6 9 39 19 75 l18 65 196 0 c118 0 200 4 205 10 17 19 51 165 39 166 -59
4 -592 3 -604 -2z"/>
<path d="M6617 9790 c9 -37 42 -122 57 -145 13 -20 24 -20 1285 -19 1011 0
1276 3 1294 13 24 14 158 163 152 170 -3 2 -632 4 -1399 5 l-1395 1 6 -25z"/>
<path d="M6750 9511 c0 -13 39 -62 99 -123 l55 -58 981 0 980 0 95 65 c52 36
111 78 130 94 l35 29 -1188 0 c-653 0 -1187 -3 -1187 -7z"/>
<path d="M7070 9216 c0 -9 116 -58 202 -86 101 -34 217 -57 332 -67 146 -13
429 -7 531 12 192 35 316 68 436 115 l74 29 -787 0 c-434 1 -788 -1 -788 -3z"/>
</g>
</svg>
